<svg xmlns="http://www.w3.org/2000/svg" version="1.1" xmlns:xlink="http://www.w3.org/1999/xlink" xmlns:svgjs="http://svgjs.dev/svgjs" width="fit-content" height="fit-content" viewBox="0 0 1000 1000"><rect width="100" height="100" fill="rgba(0,0,0,0)"></rect><g transform="matrix(0.7,0,0,0.7,149.57575757575756,312.2866438588534)"><svg viewBox="0 0 396 213" data-background-color="#00ffef" preserveAspectRatio="xMidYMid meet" height="537" width="1000" xmlns="http://www.w3.org/2000/svg" xmlns:xlink="http://www.w3.org/1999/xlink"><g id="tight-bounds" transform="matrix(1,0,0,1,0.2400000000000091,-0.13409189128964272)"><svg viewBox="0 0 395.52 213.26818378257929" height="213.26818378257929" width="395.52"><g><svg viewBox="0 0 395.52 213.26818378257929" height="213.26818378257929" width="395.52"><g transform="matrix(1,0,0,1,0,128.27802940375065)"><svg viewBox="0 0 395.52 84.99015437882863" height="84.99015437882863" width="395.52"><g id="textblocktransform"><svg viewBox="0 0 395.52 84.99015437882863" height="84.99015437882863" width="395.52" id="textblock"><g><svg viewBox="0 0 395.52 45.83962813758909" height="45.83962813758909" width="395.52"><g transform="matrix(1,0,0,1,0,0)"><svg width="395.52" viewBox="5.4 -37.1 322.68 37.4" height="45.83962813758909" data-palette-color="#010c80"><path d="M30.35-35L34.05-35 34.05 0 30.5 0 30.5-5.9Q27.05 0.3 18.75 0.3L18.75 0.3Q12.5 0.3 8.95-3.45 5.4-7.2 5.4-14.15L5.4-14.15 5.4-35 9.1-35 9.1-14.25Q9.1-8.7 11.83-5.85 14.55-3 19.45-3L19.45-3Q24.6-3 27.48-6.03 30.35-9.05 30.35-15.1L30.35-15.1 30.35-35ZM46.65-2.95L63.5-2.95 63.5 0 42.1 0 42.1-2.35 49.6-11.85 44.15-11.85 44.15-14.7 51.85-14.7 58.65-23.3 42.4-23.3 42.4-26.3 63.2-26.3 63.2-23.95 55.9-14.7 61.45-14.7 61.45-11.85 53.65-11.85 46.65-2.95ZM70.75 0L70.75-26.3 74.3-26.3 74.3 0 70.75 0ZM72.55-32.05Q71.45-32.05 70.7-32.8 69.95-33.55 69.95-34.6L69.95-34.6Q69.95-35.6 70.7-36.35 71.45-37.1 72.55-37.1L72.55-37.1Q73.64-37.1 74.39-36.38 75.14-35.65 75.14-34.65L75.14-34.65Q75.14-33.55 74.39-32.8 73.64-32.05 72.55-32.05L72.55-32.05ZM116.99-26.5Q121.94-26.5 124.77-23.65 127.59-20.8 127.59-15.25L127.59-15.25 127.59 0 124.04 0 124.04-14.9Q124.04-19 122.07-21.15 120.09-23.3 116.49-23.3L116.49-23.3Q112.39-23.3 110.04-20.78 107.69-18.25 107.69-13.8L107.69-13.8 107.69 0 104.14 0 104.14-14.9Q104.14-19 102.17-21.15 100.19-23.3 96.54-23.3L96.54-23.3Q92.49-23.3 90.12-20.78 87.74-18.25 87.74-13.8L87.74-13.8 87.74 0 84.19 0 84.19-26.3 87.59-26.3 87.59-21.5Q88.99-23.9 91.49-25.2 93.99-26.5 97.24-26.5L97.24-26.5Q100.54-26.5 102.97-25.1 105.39-23.7 106.59-20.95L106.59-20.95Q108.04-23.55 110.77-25.03 113.49-26.5 116.99-26.5L116.99-26.5ZM157.79-26.3L161.34-26.3 161.34 0 157.94 0 157.94-5.2Q156.34-2.55 153.72-1.15 151.09 0.25 147.79 0.25L147.79 0.25Q144.09 0.25 141.09-1.45 138.09-3.15 136.39-6.2 134.69-9.25 134.69-13.15L134.69-13.15Q134.69-17.05 136.39-20.1 138.09-23.15 141.09-24.83 144.09-26.5 147.79-26.5L147.79-26.5Q150.99-26.5 153.57-25.18 156.14-23.85 157.79-21.3L157.79-21.3 157.79-26.3ZM148.09-2.9Q150.84-2.9 153.07-4.17 155.29-5.45 156.57-7.8 157.84-10.15 157.84-13.15L157.84-13.15Q157.84-16.15 156.57-18.5 155.29-20.85 153.07-22.13 150.84-23.4 148.09-23.4L148.09-23.4Q145.29-23.4 143.07-22.13 140.84-20.85 139.57-18.5 138.29-16.15 138.29-13.15L138.29-13.15Q138.29-10.15 139.57-7.8 140.84-5.45 143.07-4.17 145.29-2.9 148.09-2.9L148.09-2.9ZM197.89-26.5Q201.59-26.5 204.59-24.83 207.59-23.15 209.29-20.1 210.99-17.05 210.99-13.15L210.99-13.15Q210.99-9.25 209.29-6.2 207.59-3.15 204.59-1.45 201.59 0.25 197.89 0.25L197.89 0.25Q194.59 0.25 191.96-1.15 189.34-2.55 187.74-5.2L187.74-5.2 187.74 0 184.34 0 184.34-37.1 187.89-37.1 187.89-21.3Q189.54-23.85 192.11-25.18 194.69-26.5 197.89-26.5L197.89-26.5ZM197.64-2.9Q200.39-2.9 202.64-4.17 204.89-5.45 206.16-7.8 207.44-10.15 207.44-13.15L207.44-13.15Q207.44-16.15 206.16-18.5 204.89-20.85 202.64-22.13 200.39-23.4 197.64-23.4L197.64-23.4Q194.84-23.4 192.61-22.13 190.39-20.85 189.11-18.5 187.84-16.15 187.84-13.15L187.84-13.15Q187.84-10.15 189.11-7.8 190.39-5.45 192.61-4.17 194.84-2.9 197.64-2.9L197.64-2.9ZM228.98 0.25Q225.18 0.25 222.13-1.48 219.08-3.2 217.33-6.25 215.58-9.3 215.58-13.15L215.58-13.15Q215.58-17 217.33-20.05 219.08-23.1 222.13-24.8 225.18-26.5 228.98-26.5L228.98-26.5Q232.78-26.5 235.83-24.8 238.88-23.1 240.61-20.05 242.33-17 242.33-13.15L242.33-13.15Q242.33-9.3 240.61-6.25 238.88-3.2 235.83-1.48 232.78 0.25 228.98 0.25L228.98 0.25ZM228.98-2.9Q231.78-2.9 234.01-4.17 236.23-5.45 237.48-7.8 238.73-10.15 238.73-13.15L238.73-13.15Q238.73-16.15 237.48-18.5 236.23-20.85 234.01-22.13 231.78-23.4 228.98-23.4L228.98-23.4Q226.18-23.4 223.96-22.13 221.73-20.85 220.46-18.5 219.18-16.15 219.18-13.15L219.18-13.15Q219.18-10.15 220.46-7.8 221.73-5.45 223.96-4.17 226.18-2.9 228.98-2.9L228.98-2.9ZM260.33 0.25Q256.53 0.25 253.48-1.48 250.43-3.2 248.68-6.25 246.93-9.3 246.93-13.15L246.93-13.15Q246.93-17 248.68-20.05 250.43-23.1 253.48-24.8 256.53-26.5 260.33-26.5L260.33-26.5Q264.13-26.5 267.18-24.8 270.23-23.1 271.96-20.05 273.68-17 273.68-13.15L273.68-13.15Q273.68-9.3 271.96-6.25 270.23-3.2 267.18-1.48 264.13 0.25 260.33 0.25L260.33 0.25ZM260.33-2.9Q263.13-2.9 265.36-4.17 267.58-5.45 268.83-7.8 270.08-10.15 270.08-13.15L270.08-13.15Q270.08-16.15 268.83-18.5 267.58-20.85 265.36-22.13 263.13-23.4 260.33-23.4L260.33-23.4Q257.53-23.4 255.31-22.13 253.08-20.85 251.81-18.5 250.53-16.15 250.53-13.15L250.53-13.15Q250.53-10.15 251.81-7.8 253.08-5.45 255.31-4.17 257.53-2.9 260.33-2.9L260.33-2.9ZM301.28 0L290.68-13.2 284.48-7.5 284.48 0 280.93 0 280.93-37.1 284.48-37.1 284.48-11.95 300.18-26.3 304.58-26.3 293.33-15.55 305.63 0 301.28 0ZM317.23 0.25Q314.03 0.25 311.1-0.68 308.18-1.6 306.53-3L306.53-3 308.13-5.8Q309.78-4.5 312.28-3.68 314.78-2.85 317.48-2.85L317.48-2.85Q321.08-2.85 322.8-3.98 324.53-5.1 324.53-7.15L324.53-7.15Q324.53-8.6 323.58-9.43 322.63-10.25 321.18-10.68 319.73-11.1 317.33-11.5L317.33-11.5Q314.13-12.1 312.18-12.73 310.23-13.35 308.85-14.85 307.48-16.35 307.48-19L307.48-19Q307.48-22.3 310.23-24.4 312.98-26.5 317.88-26.5L317.88-26.5Q320.43-26.5 322.98-25.83 325.53-25.15 327.18-24.05L327.18-24.05 325.63-21.2Q322.38-23.45 317.88-23.45L317.88-23.45Q314.48-23.45 312.75-22.25 311.03-21.05 311.03-19.1L311.03-19.1Q311.03-17.6 312-16.7 312.98-15.8 314.43-15.38 315.88-14.95 318.43-14.5L318.43-14.5Q321.58-13.9 323.48-13.3 325.38-12.7 326.73-11.25 328.08-9.8 328.08-7.25L328.08-7.25Q328.08-3.8 325.2-1.78 322.33 0.25 317.23 0.25L317.23 0.25Z" opacity="1" transform="matrix(1,0,0,1,0,0)" fill="#ffffff" class="wordmark-text-0" data-fill-palette-color="primary" id="text-0"></path></svg></g></svg></g><g transform="matrix(1,0,0,1,0,56.66126418979857)"><svg viewBox="0 0 395.52 28.32889018903006" height="28.32889018903006" width="395.52"><g transform="matrix(1,0,0,1,0,0)"><svg width="395.52" viewBox="2.75 -37.5 692.5 49.6" height="28.32889018903006" data-palette-color="#0080ff"><path d="M8.25 0.5Q5.45 0.5 4.1-1.2 2.75-2.9 2.75-5.4L2.75-5.4 2.75-37.5 7.1-37.5 7.1-8Q7.1-5.8 7.33-4.78 7.55-3.75 8.2-3.4 8.85-3.05 10.3-3.05L10.3-3.05 9.75 0.5 8.25 0.5ZM110.31-30.05L110.31-35 114.66-35 114.66-30.05 110.31-30.05ZM110.31 0L110.31-24.5 114.66-24.5 114.66 0 110.31 0ZM226.87-25Q229.82-25 231.99-23.25 234.17-21.5 235.32-18.57 236.47-15.65 236.47-12.25L236.47-12.25Q236.47-8.7 235.27-5.78 234.07-2.85 231.89-1.18 229.72 0.5 226.87 0.5L226.87 0.5Q224.87 0.5 223.14-0.25 221.42-1 220.27-2.4L220.27-2.4 220.07 0 216.12 0 216.12-37.5 220.47-37.5 220.47-22.15Q223.07-25 226.87-25L226.87-25ZM226.12-3.35Q228.77-3.35 230.39-5.93 232.02-8.5 232.02-12.25L232.02-12.25Q232.02-16.1 230.42-18.6 228.82-21.1 226.12-21.1L226.12-21.1Q223.42-21.1 221.74-18.82 220.07-16.55 220.07-12.25L220.07-12.25Q220.07-7.8 221.74-5.58 223.42-3.35 226.12-3.35L226.12-3.35ZM337.08 0L337.08-24.5 340.63-24.5 341.18-20.4Q342.83-22.8 344.3-23.9 345.78-25 347.43-25L347.43-25Q348.08-25 348.58-24.85L348.58-24.85 348.13-19.9Q347.48-20.05 346.63-20.05L346.63-20.05Q344.98-20.05 343.53-19.23 342.08-18.4 341.43-17.3L341.43-17.3 341.43 0 337.08 0ZM452.33 0.5Q449.53 0.5 447.73-1.5 445.93-3.5 445.93-6.6L445.93-6.6Q445.93-11.2 449.78-13.23 453.63-15.25 458.38-15.35L458.38-15.35Q458.38-18.55 457.43-19.8 456.48-21.05 454.23-21.05L454.23-21.05Q451.33-21.05 448.33-18.8L448.33-18.8 447.78-22.45Q450.93-25 455.08-25L455.08-25Q459.03-25 460.93-22.73 462.83-20.45 462.83-15.4L462.83-15.4 462.83-8.25Q462.83-5.4 463.23-4.23 463.63-3.05 464.98-3.05L464.98-3.05 465.53-3.05 464.98 0.5 464.03 0.5Q461.73 0.5 460.63-0.35 459.53-1.2 458.83-3.1L458.83-3.1Q457.68-1.45 455.98-0.48 454.28 0.5 452.33 0.5L452.33 0.5ZM453.68-3.05Q454.88-3.05 456.18-3.98 457.48-4.9 458.38-6.4L458.38-6.4 458.38-12.25Q454.53-12.05 452.53-10.78 450.53-9.5 450.53-6.85L450.53-6.85Q450.53-3.05 453.68-3.05L453.68-3.05ZM565.29 0L565.29-24.5 568.84-24.5 569.39-20.4Q571.04-22.8 572.52-23.9 573.99-25 575.64-25L575.64-25Q576.29-25 576.79-24.85L576.79-24.85 576.34-19.9Q575.69-20.05 574.84-20.05L574.84-20.05Q573.19-20.05 571.74-19.23 570.29-18.4 569.64-17.3L569.64-17.3 569.64 0 565.29 0ZM677.45 12.1L682.35-1.1 673.4-24.5 678.05-24.5 684.6-6.25 690.6-24.5 695.25-24.5 682.1 12.1 677.45 12.1Z" opacity="1" transform="matrix(1,0,0,1,0,0)" fill="#ffffff" class="slogan-text-1" data-fill-palette-color="secondary" id="text-1"></path></svg></g></svg></g></svg></g></svg></g><g transform="matrix(1,0,0,1,139.0318033242294,0)"><svg viewBox="0 0 117.45639335154118 117.45639335154118" height="117.45639335154118" width="117.45639335154118"><g><svg></svg></g><g id="icon-0"><svg viewBox="0 0 117.45639335154118 117.45639335154118" height="117.45639335154118" width="117.45639335154118"><g><path transform="scale(1.17456,1.17456)" d="M30 100c-16.569 0-30-13.431-30-30v-40c0-16.569 13.431-30 30-30h40c16.569 0 30 13.431 30 30v40c0 16.569-13.431 30-30 30z" fill="#ffffff" fill-rule="nonzero" stroke="none" stroke-width="1" stroke-linecap="butt" stroke-linejoin="miter" stroke-miterlimit="10" stroke-dasharray="" stroke-dashoffset="0" font-family="none" font-weight="none" font-size="none" text-anchor="none" style="mix-blend-mode: normal" data-fill-palette-color="accent"></path></g><g transform="matrix(1,0,0,1,23.49127867030824,41.066184510182836)"><svg viewBox="0 0 70.4738360109247 35.32402433117551" height="35.32402433117551" width="70.4738360109247"><g><svg xmlns="http://www.w3.org/2000/svg" xmlns:xlink="http://www.w3.org/1999/xlink" xml:space="preserve" style="shape-rendering:geometricPrecision;text-rendering:geometricPrecision;image-rendering:optimizeQuality;" viewBox="0.0000020000000000575113 0.0000027841116459863258 14.727499 7.381952827609914" x="0" y="0" fill-rule="evenodd" clip-rule="evenodd" width="70.4738360109247" height="35.32402433117551" class="icon-z$-0" data-fill-palette-color="quaternary" id="z$-0"><g fill="#00ffef" data-fill-palette-color="quaternary"><path class="" d="M1.757 3.091c-0.313 0.444-0.296 1.331-0.417 1.95-0.153 0.784-0.711 1.203-1.34 1.534 0.188-0.771 0.348-1.542 0.412-2.313 0.078-0.953-0.06-0.891 0.767-1.575 1.159-0.961 3.04-1.741 5.848-2.29 2.456-0.406 5.049-0.453 7.701-0.351-0.89 1.809-3.733 1.961-7.203 1.581-1.811 0.02-3.495-0.488-5.768 1.464z m8.33 2.781c-3.895 2.038-7.803-2.284-9.165 0.688 2.104-1.831 5.079 3.183 9.165-0.688z m2.489-2.547c-4.49 2.72-9.502-0.792-10.907 1.859 3.412-1.235 7.765 2.753 10.907-1.859z m0.834-1.478c-3.944 1.761-10.043-1.402-11.565 2.239 3.106-1.808 8.446 1.438 11.565-2.239z" fill="#000000" data-fill-palette-color="quaternary"></path></g></svg></g></svg></g></svg></g></svg></g><g></g></svg></g><defs></defs></svg><rect width="395.52" height="213.26818378257929" fill="none" stroke="none" visibility="hidden"></rect></g></svg></g></svg>